<?xml version="1.0" encoding="utf-8"?>
<svg viewBox="-292.974 -354.454 1000 1000" xmlns="http://www.w3.org/2000/svg">
  <g transform="matrix(1, 0, 0, 1, -292.973663, -447.454224)">
    <ellipse id="XMLID_2_" class="st2" cx="501.8" cy="487.5" rx="228" ry="205.8" style="fill: rgb(143, 227, 249);"/>
    <ellipse id="XMLID_188_" class="st2" cx="501.8" cy="487.5" rx="228" ry="205.8" style="fill: rgb(143, 227, 249);"/>
    <path id="XMLID_193_" class="st3" d="M507.8,689.3c52.1,0,100.1-15.3,138.5-41l-10.5-24.7c-22-51.9-74.2-85.8-132.1-85.8l0,0 c-57.9,0-110.1,33.9-132.1,85.8l-8.6,20.4C402.3,672.3,452.8,689.3,507.8,689.3z" style="fill: rgb(178, 235, 249);"/>
    <path id="XMLID_189_" class="st4" d="M501.7,470.3l-43.6,64l32.9,43.8c5.4,7.2,16.3,7.2,21.7,0l32.6-43.8L501.7,470.3z" style="fill: rgb(164, 224, 234);"/>
    <path id="XMLID_192_" class="st5" d="M501.8,669.3c-121.5,0-220.7-85.7-227.6-193.8c-0.3,4-0.4,8-0.4,12 c0,113.6,102.1,205.8,228,205.8s228-92.1,228-205.8c0-4-0.1-8-0.4-12C722.5,583.6,623.2,669.3,501.8,669.3z" style="fill: rgb(122, 209, 229);"/>
    <path id="XMLID_76_" class="st4" d="M638.6,628.1c-38.1,25.8-85.5,41.2-136.8,41.2c-50,0-96.2-14.5-133.7-39.1l-5,12.3 c39.4,29.2,89.8,46.8,144.8,46.8c49.7,0,95.7-14.4,133.2-38.8c1.8-1.2,3.5-2.5,5.3-3.8L638.6,628.1z" style="fill: rgb(164, 224, 234);"/>
    <path id="XMLID_186_" class="st5" d="M268.2,488.2c6.4,13.1,15,25.3,25.8,36.2c52.3,52.3,137.2,52.3,189.5,0 c43.8-43.8,50.9-110.3,21.5-161.5" style="fill: rgb(122, 209, 229);"/>
    <path id="XMLID_185_" class="st5" d="M729,503.8c-24,36.1-65,59.8-111.6,59.8c-74,0-134-60-134-134c0-33,11.9-63.2,31.7-86.6" style="fill: rgb(122, 209, 229);"/>
    <ellipse id="XMLID_75_" class="st6" cx="501.8" cy="487.5" rx="228" ry="205.8" style="fill: none; stroke: rgb(65, 61, 81); stroke-linecap: round; stroke-linejoin: round; stroke-miterlimit: 10; stroke-width: 16px;"/>
    <polygon id="XMLID_74_" class="st1" points="501.7,442.3 458.1,506.3 501.9,564.6 545.4,506.3 &#9;" style="fill: rgb(65, 61, 81);"/>
    <polygon id="XMLID_73_" class="st6" points="501.7,442.3 458.1,506.3 501.9,564.6 545.4,506.3 &#9;" style="fill: none; stroke: rgb(65, 61, 81); stroke-linecap: round; stroke-linejoin: round; stroke-miterlimit: 10; stroke-width: 16px;"/>
    <path id="XMLID_72_" class="st1" d="M600.7,303.9c-30-14-64.1-21.9-100-21.9s-70,7.9-100,21.9v140.1h200V303.9z" style="fill: rgb(65, 61, 81);"/>
    <g id="XMLID_58_">
      <path id="XMLID_71_" class="st1" d="M613.5,317.9l108.7-3.3c-15.7,39.3-17.8,98.4-4.1,163c-17.4,36.8-54.4,62.9-97.9,64.2l0,0 c-61.8,1.9-113.5-46.7-115.3-108.6l0,0C503,371.4,551.6,319.8,613.5,317.9z" style="fill: rgb(65, 61, 81);"/>
      <path id="XMLID_70_" class="st6" d="M613.5,317.9l108.7-3.3c-15.7,39.3-17.8,98.4-4.1,163c-17.4,36.8-54.4,62.9-97.9,64.2l0,0 c-61.8,1.9-113.5-46.7-115.3-108.6l0,0C503,371.4,551.6,319.8,613.5,317.9z" style="fill: none; stroke: rgb(65, 61, 81); stroke-linecap: round; stroke-linejoin: round; stroke-miterlimit: 10; stroke-width: 16px;"/>
      <circle id="XMLID_69_" class="st7" cx="617.4" cy="429.7" r="112" style="fill: rgb(247, 232, 173);"/>
      <circle id="XMLID_5_" class="st7" cx="617.4" cy="429.7" r="112" style="fill: rgb(247, 232, 173);"/>
      <path id="XMLID_86_" class="st8" d="M696.6,350.5c-21.5-21.5-49.7-32.4-77.9-32.8c21.2,4.1,41.5,14.3,57.9,30.8 c43.7,43.7,43.7,114.6,0,158.4c-22.2,22.2-51.4,33.1-80.4,32.8c35.3,6.8,73.1-3.5,100.4-30.8C740.3,465.1,740.3,394.2,696.6,350.5 z" style="fill: rgb(247, 214, 161);"/>
      <ellipse id="XMLID_3_" transform="matrix(0.7071 -0.7071 0.7071 0.7071 -130.8246 543.5441)" class="st0" cx="590.7" cy="429.7" rx="84" ry="84.6" style="fill: rgb(255, 255, 255); opacity: 0.7;"/>
      <path id="XMLID_12_" class="st9" d="M711.4,376.6c-3.1-4-9.1-15-12.8-18.7c-44-43.4-114.9-43-158.3,1.1 c-8.6,8.7-15.5,18.5-20.6,29C581.4,366.3,649,371.5,711.4,376.6z" style="fill: rgb(239, 202, 146);"/>
      <circle id="XMLID_68_" class="st6" cx="617.4" cy="429.7" r="112" style="fill: none; stroke: rgb(65, 61, 81); stroke-linecap: round; stroke-linejoin: round; stroke-miterlimit: 10; stroke-width: 16px;"/>
      <circle id="XMLID_67_" class="st6" cx="617.4" cy="429.7" r="112" style="fill: none; stroke: rgb(65, 61, 81); stroke-linecap: round; stroke-linejoin: round; stroke-miterlimit: 10; stroke-width: 16px;"/>
      <path id="XMLID_66_" class="st1" d="M706.7,362.1c-3.1-4-6.4-7.9-10.1-11.6c-43.7-43.7-114.6-43.7-158.4,0 c-8.7,8.7-15.6,18.4-20.8,28.8C579.4,358.1,644.3,356.5,706.7,362.1z" style="fill: rgb(65, 61, 81);"/>
      <circle id="XMLID_57_" class="st1" cx="562.9" cy="438.1" r="42" style="fill: rgb(65, 61, 81);"/>
      <circle id="XMLID_56_" class="st10" cx="539.1" cy="438.4" r="14" style="fill: rgb(255, 255, 255);"/>
    </g>
    <g id="XMLID_26_">
      <path id="XMLID_89_" class="st1" d="M388.8,317.9L280,314.6c15.7,39.3,17.8,98.4,4.1,163c17.4,36.8,54.4,62.9,97.9,64.2l0,0 c61.8,1.9,113.5-46.7,115.3-108.6l0,0C499.2,371.4,450.6,319.8,388.8,317.9z" style="fill: rgb(65, 61, 81);"/>
      <path id="XMLID_88_" class="st6" d="M388.8,317.9L280,314.6c15.7,39.3,17.8,98.4,4.1,163c17.4,36.8,54.4,62.9,97.9,64.2l0,0 c61.8,1.9,113.5-46.7,115.3-108.6l0,0C499.2,371.4,450.6,319.8,388.8,317.9z" style="fill: none; stroke: rgb(65, 61, 81); stroke-linecap: round; stroke-linejoin: round; stroke-miterlimit: 10; stroke-width: 16px;"/>
      <circle id="XMLID_87_" class="st7" cx="384.8" cy="429.7" r="112" style="fill: rgb(247, 232, 173);"/>
      <circle id="XMLID_84_" class="st7" cx="384.8" cy="429.7" r="112" style="fill: rgb(247, 232, 173);"/>
      <path id="XMLID_65_" class="st8" d="M305.6,350.5c21.5-21.5,49.7-32.4,77.9-32.8c-21.2,4.1-41.5,14.3-57.9,30.8 c-43.7,43.7-43.7,114.6,0,158.4c22.2,22.2,51.4,33.1,80.4,32.8c-35.3,6.8-73.1-3.5-100.4-30.8 C261.9,465.1,261.9,394.2,305.6,350.5z" style="fill: rgb(247, 214, 161);"/>
      <ellipse id="XMLID_64_" transform="matrix(0.7071 -0.7071 0.7071 0.7071 -183.3021 416.8521)" class="st0" cx="411.5" cy="429.7" rx="84.6" ry="84" style="fill: rgb(255, 255, 255); opacity: 0.7;"/>
      <path id="XMLID_63_" class="st11" d="M290.9,376.6c3.1-4,9.1-15,12.8-18.7c44-43.4,114.9-43,158.3,1.1c8.6,8.7,15.5,18.5,20.6,29 C420.8,366.3,353.2,371.5,290.9,376.6z" style="fill: rgb(239, 202, 146); opacity: 0.89;"/>
      <circle id="XMLID_62_" class="st6" cx="384.8" cy="429.7" r="112" style="fill: none; stroke: rgb(65, 61, 81); stroke-linecap: round; stroke-linejoin: round; stroke-miterlimit: 10; stroke-width: 16px;"/>
      <circle id="XMLID_61_" class="st6" cx="384.8" cy="429.7" r="112" style="fill: none; stroke: rgb(65, 61, 81); stroke-linecap: round; stroke-linejoin: round; stroke-miterlimit: 10; stroke-width: 16px;"/>
      <path id="XMLID_60_" class="st1" d="M295.6,362.1c3.1-4,6.4-7.9,10.1-11.6c43.7-43.7,114.6-43.7,158.4,0 c8.7,8.7,15.6,18.4,20.8,28.8C422.9,358.1,357.9,356.5,295.6,362.1z" style="fill: rgb(65, 61, 81);"/>
      <circle id="XMLID_59_" class="st1" cx="439.4" cy="438.1" r="42" style="fill: rgb(65, 61, 81);"/>
      <circle id="XMLID_37_" class="st10" cx="463.2" cy="438.4" r="14" style="fill: rgb(255, 255, 255);"/>
    </g>
    <path id="XMLID_19_" class="st1" d="M447.9,718.3L447.9,718.3c-8.8,0-16-7.2-16-16v-18c0-8.8,7.2-16,16-16h0c8.8,0,16,7.2,16,16v18 C463.9,711.1,456.8,718.3,447.9,718.3z" style="fill: rgb(65, 61, 81);"/>
    <path id="XMLID_17_" class="st1" d="M415.9,718.3L415.9,718.3c-8.8,0-16-7.2-16-16v-18c0-8.8,7.2-16,16-16h0c8.8,0,16,7.2,16,16v18 C431.9,711.1,424.8,718.3,415.9,718.3z" style="fill: rgb(65, 61, 81);"/>
    <path id="XMLID_16_" class="st1" d="M479.7,718.3L479.7,718.3c-8.8,0-16-7.2-16-16v-18c0-8.8,7.2-16,16-16h0c8.8,0,16,7.2,16,16v18 C495.7,711.1,488.5,718.3,479.7,718.3z" style="fill: rgb(65, 61, 81);"/>
    <path id="XMLID_15_" class="st1" d="M521.9,718.3L521.9,718.3c-8.8,0-16-7.2-16-16v-18c0-8.8,7.2-16,16-16h0c8.8,0,16,7.2,16,16v18 C537.9,711.1,530.7,718.3,521.9,718.3z" style="fill: rgb(65, 61, 81);"/>
    <path id="XMLID_14_" class="st1" d="M553.7,718.3L553.7,718.3c-8.8,0-16-7.2-16-16v-18c0-8.8,7.2-16,16-16h0c8.8,0,16,7.2,16,16v18 C569.7,711.1,562.5,718.3,553.7,718.3z" style="fill: rgb(65, 61, 81);"/>
    <path id="XMLID_13_" class="st1" d="M585.7,718.3L585.7,718.3c-8.8,0-16-7.2-16-16v-18c0-8.8,7.2-16,16-16h0c8.8,0,16,7.2,16,16v18 C601.7,711.1,594.5,718.3,585.7,718.3z" style="fill: rgb(65, 61, 81);"/>
    <path id="XMLID_11_" class="st12" d="M491.9,587.6c0,8.4-6.8,15.2-15.2,15.2c-8.4,0-15.2-6.8-15.2-15.2" style="fill: none; stroke: rgb(65, 61, 81); stroke-linecap: round; stroke-linejoin: round; stroke-miterlimit: 10; stroke-width: 8px;"/>
    <path id="XMLID_9_" class="st12" d="M538.4,587.6c0,8.4-6.8,15.2-15.2,15.2c-8.4,0-15.2-6.8-15.2-15.2" style="fill: none; stroke: rgb(65, 61, 81); stroke-linecap: round; stroke-linejoin: round; stroke-miterlimit: 10; stroke-width: 8px;"/>
    <path id="XMLID_10_" class="st13" d="M323,548.8c-2.2,4.7-7.7,6.8-12.5,4.6s-6.8-7.7-4.6-12.5" style="fill: none; opacity: 0.31; stroke: rgb(114, 200, 214); stroke-linecap: round; stroke-linejoin: round; stroke-miterlimit: 10; stroke-width: 8px;"/>
    <path id="XMLID_1_" class="st13" d="M352.8,564.3c-2.2,4.7-7.7,6.8-12.5,4.6c-4.7-2.2-6.8-7.7-4.6-12.5" style="fill: none; opacity: 0.31; stroke: rgb(114, 200, 214); stroke-linecap: round; stroke-linejoin: round; stroke-miterlimit: 10; stroke-width: 8px;"/>
    <path id="XMLID_78_" class="st13" d="M335.5,576.2c-2.2,4.7-7.7,6.8-12.5,4.6c-4.7-2.2-6.8-7.7-4.6-12.5" style="fill: none; opacity: 0.31; stroke: rgb(114, 200, 214); stroke-linecap: round; stroke-linejoin: round; stroke-miterlimit: 10; stroke-width: 8px;"/>
    <path id="XMLID_77_" class="st13" d="M361.7,596.1c-2.2,4.7-7.7,6.8-12.5,4.6c-4.7-2.2-6.8-7.7-4.6-12.5" style="fill: none; opacity: 0.31; stroke: rgb(114, 200, 214); stroke-linecap: round; stroke-linejoin: round; stroke-miterlimit: 10; stroke-width: 8px;"/>
    <path id="XMLID_79_" class="st13" d="M381.7,578.1c-2.2,4.7-7.7,6.8-12.5,4.6c-4.7-2.2-6.8-7.7-4.6-12.5" style="fill: none; opacity: 0.31; stroke: rgb(114, 200, 214); stroke-linecap: round; stroke-linejoin: round; stroke-miterlimit: 10; stroke-width: 8px;"/>
    <path id="XMLID_85_" class="st13" d="M683.7,550.8c2.2,4.7,7.7,6.8,12.5,4.6s6.8-7.7,4.6-12.5" style="fill: none; opacity: 0.31; stroke: rgb(114, 200, 214); stroke-linecap: round; stroke-linejoin: round; stroke-miterlimit: 10; stroke-width: 8px;"/>
    <path id="XMLID_83_" class="st13" d="M654,566.3c2.2,4.7,7.7,6.8,12.5,4.6c4.7-2.2,6.8-7.7,4.6-12.5" style="fill: none; opacity: 0.31; stroke: rgb(114, 200, 214); stroke-linecap: round; stroke-linejoin: round; stroke-miterlimit: 10; stroke-width: 8px;"/>
    <path id="XMLID_82_" class="st13" d="M671.2,578.2c2.2,4.7,7.7,6.8,12.5,4.6c4.7-2.2,6.8-7.7,4.6-12.5" style="fill: none; opacity: 0.31; stroke: rgb(114, 200, 214); stroke-linecap: round; stroke-linejoin: round; stroke-miterlimit: 10; stroke-width: 8px;"/>
    <path id="XMLID_81_" class="st13" d="M645.1,598.1c2.2,4.7,7.7,6.8,12.5,4.6c4.7-2.2,6.8-7.7,4.6-12.5" style="fill: none; opacity: 0.31; stroke: rgb(114, 200, 214); stroke-linecap: round; stroke-linejoin: round; stroke-miterlimit: 10; stroke-width: 8px;"/>
    <path id="XMLID_80_" class="st13" d="M625.1,580.1c2.2,4.7,7.7,6.8,12.5,4.6c4.7-2.2,6.8-7.7,4.6-12.5" style="fill: none; opacity: 0.31; stroke: rgb(114, 200, 214); stroke-linecap: round; stroke-linejoin: round; stroke-miterlimit: 10; stroke-width: 8px;"/>
    <path id="XMLID_8_" class="st12" d="M468.7,624.1c0,8.4-6.8,15.2-15.2,15.2c-8.4,0-15.2-6.8-15.2-15.2" style="fill: none; stroke: rgb(65, 61, 81); stroke-linecap: round; stroke-linejoin: round; stroke-miterlimit: 10; stroke-width: 8px;"/>
    <path id="XMLID_7_" class="st12" d="M515.2,624.1c0,8.4-6.8,15.2-15.2,15.2s-15.2-6.8-15.2-15.2" style="fill: none; stroke: rgb(65, 61, 81); stroke-linecap: round; stroke-linejoin: round; stroke-miterlimit: 10; stroke-width: 8px;"/>
    <path id="XMLID_6_" class="st12" d="M561.7,624.1c0,8.4-6.8,15.2-15.2,15.2c-8.4,0-15.2-6.8-15.2-15.2" style="fill: none; stroke: rgb(65, 61, 81); stroke-linecap: round; stroke-linejoin: round; stroke-miterlimit: 10; stroke-width: 8px;"/>
  </g>
  <path d="M -198.447 331.239 L -220.163 331.239 C -227.579 331.239 -233.082 329.755 -236.672 326.789 C -240.262 323.822 -242.057 319.253 -242.057 313.083 L -242.057 285.404 C -242.057 279.233 -240.262 274.649 -236.672 271.653 C -233.082 268.657 -227.579 267.159 -220.163 267.159 L -198.447 267.159 C -197.319 267.159 -196.503 267.411 -195.999 267.915 C -195.495 268.419 -195.243 269.235 -195.243 270.363 L -195.243 281.132 C -195.243 282.259 -195.495 283.075 -195.999 283.579 C -196.503 284.083 -197.319 284.336 -198.447 284.336 L -216.336 284.336 C -218.175 284.336 -219.54 284.706 -220.43 285.448 C -221.32 286.19 -221.765 287.302 -221.765 288.786 L -221.765 309.968 C -221.765 311.451 -221.32 312.534 -220.43 313.216 C -219.54 313.898 -218.175 314.24 -216.336 314.24 L -198.447 314.24 C -197.319 314.24 -196.503 314.492 -195.999 314.996 C -195.495 315.5 -195.243 316.316 -195.243 317.444 L -195.243 328.035 C -195.243 329.162 -195.495 329.978 -195.999 330.482 C -196.503 330.986 -197.319 331.239 -198.447 331.239 Z" style="fill: rgb(65, 61, 81); white-space: pre;"/>
  <path d="M -131.35 314.418 C -131.35 317.147 -131.75 319.624 -132.552 321.849 C -133.352 324.074 -134.776 325.973 -136.824 327.545 C -138.87 329.117 -141.689 330.349 -145.279 331.239 C -148.868 332.129 -153.422 332.574 -158.94 332.574 C -164.458 332.574 -169.026 332.129 -172.646 331.239 C -176.265 330.349 -179.098 329.117 -181.146 327.545 C -183.192 325.973 -184.616 324.074 -185.418 321.849 C -186.218 319.624 -186.619 317.147 -186.619 314.418 L -186.619 284.069 C -186.619 281.339 -186.218 278.862 -185.418 276.637 C -184.616 274.412 -183.192 272.499 -181.146 270.897 C -179.098 269.295 -176.265 268.049 -172.646 267.159 C -169.026 266.269 -164.458 265.824 -158.94 265.824 C -153.422 265.824 -148.868 266.269 -145.279 267.159 C -141.689 268.049 -138.87 269.295 -136.824 270.897 C -134.776 272.499 -133.352 274.412 -132.552 276.637 C -131.75 278.862 -131.35 281.339 -131.35 284.069 L -131.35 314.418 Z M -166.416 311.214 C -166.416 312.4 -165.971 313.394 -165.081 314.195 C -164.191 314.996 -162.144 315.397 -158.94 315.397 C -155.736 315.397 -153.689 314.996 -152.799 314.195 C -151.909 313.394 -151.464 312.4 -151.464 311.214 L -151.464 287.273 C -151.464 286.145 -151.909 285.181 -152.799 284.38 C -153.689 283.579 -155.736 283.179 -158.94 283.179 C -162.144 283.179 -164.191 283.579 -165.081 284.38 C -165.971 285.181 -166.416 286.145 -166.416 287.273 L -166.416 311.214 Z" style="fill: rgb(65, 61, 81); white-space: pre;"/>
  <path d="M -86.85 331.239 L -116.843 331.239 C -117.97 331.239 -118.786 330.986 -119.29 330.482 C -119.794 329.978 -120.047 329.162 -120.047 328.035 L -120.047 270.363 C -120.047 269.235 -119.794 268.419 -119.29 267.915 C -118.786 267.411 -117.97 267.159 -116.843 267.159 L -86.85 267.159 C -79.433 267.159 -73.93 268.642 -70.34 271.609 C -66.75 274.575 -64.956 279.144 -64.956 285.315 L -64.956 313.083 C -64.956 319.253 -66.75 323.822 -70.34 326.789 C -73.93 329.755 -79.433 331.239 -86.85 331.239 Z M -99.844 284.158 L -99.844 314.418 L -89.253 314.418 C -87.829 314.418 -86.775 314.062 -86.093 313.35 C -85.411 312.638 -85.07 311.54 -85.07 310.057 L -85.07 288.43 C -85.07 286.946 -85.411 285.863 -86.093 285.181 C -86.775 284.499 -87.829 284.158 -89.253 284.158 L -99.844 284.158 Z" style="fill: rgb(65, 61, 81); white-space: pre;"/>
  <path d="M -9.156 331.239 L -50.452 331.239 C -51.579 331.239 -52.395 330.986 -52.899 330.482 C -53.403 329.978 -53.656 329.162 -53.656 328.035 L -53.656 270.363 C -53.656 269.235 -53.403 268.419 -52.899 267.915 C -52.395 267.411 -51.579 267.159 -50.452 267.159 L -9.156 267.159 C -8.028 267.159 -7.212 267.411 -6.708 267.915 C -6.204 268.419 -5.952 269.235 -5.952 270.363 L -5.952 280.776 C -5.952 281.903 -6.204 282.719 -6.708 283.223 C -7.212 283.727 -8.028 283.98 -9.156 283.98 L -33.72 283.98 L -33.72 290.833 L -16.365 290.833 C -15.237 290.833 -14.421 291.085 -13.917 291.589 C -13.413 292.093 -13.161 292.909 -13.161 294.037 L -13.161 303.56 C -13.161 304.687 -13.413 305.503 -13.917 306.007 C -14.421 306.511 -15.237 306.764 -16.365 306.764 L -33.72 306.764 L -33.72 314.418 L -9.156 314.418 C -8.028 314.418 -7.212 314.67 -6.708 315.174 C -6.204 315.678 -5.952 316.494 -5.952 317.622 L -5.952 328.035 C -5.952 329.162 -6.204 329.978 -6.708 330.482 C -7.212 330.986 -8.028 331.239 -9.156 331.239 Z" style="fill: rgb(65, 61, 81); white-space: pre;"/>
  <path d="M 24.661 283.179 L 24.661 294.571 L 31.336 294.571 C 32.879 294.571 33.917 294.17 34.451 293.369 C 34.985 292.568 35.252 291.574 35.252 290.388 L 35.252 287.362 C 35.252 286.175 34.985 285.181 34.451 284.38 C 33.917 283.579 32.879 283.179 31.336 283.179 L 24.661 283.179 Z M 21.457 331.239 L 7.751 331.239 C 6.624 331.239 5.808 330.986 5.304 330.482 C 4.8 329.978 4.547 329.162 4.547 328.035 L 4.547 270.363 C 4.547 269.235 4.8 268.419 5.304 267.915 C 5.808 267.411 6.624 267.159 7.751 267.159 L 37.388 267.159 C 44.034 267.159 48.617 268.538 51.139 271.297 C 53.661 274.056 54.921 277.631 54.921 282.022 L 54.921 286.116 C 54.921 288.608 54.551 290.729 53.809 292.479 C 53.067 294.229 51.777 295.49 49.937 296.262 C 53.141 296.618 55.737 297.923 57.725 300.178 C 59.713 302.432 60.706 305.429 60.706 309.167 L 60.706 328.035 C 60.706 329.162 60.454 329.978 59.95 330.482 C 59.446 330.986 58.63 331.239 57.502 331.239 L 43.707 331.239 C 42.58 331.239 41.764 330.986 41.26 330.482 C 40.756 329.978 40.503 329.162 40.503 328.035 L 40.503 314.418 C 40.503 313.112 40.251 312.148 39.747 311.525 C 39.243 310.902 38.367 310.591 37.121 310.591 L 24.661 310.591 L 24.661 328.035 C 24.661 329.162 24.409 329.978 23.905 330.482 C 23.401 330.986 22.585 331.239 21.457 331.239 Z" style="fill: rgb(65, 61, 81); white-space: pre;"/>
  <path d="M 100.414 331.239 L 72.29 331.239 C 71.163 331.239 70.347 330.986 69.842 330.482 C 69.338 329.978 69.086 329.162 69.086 328.035 L 69.086 317.622 C 69.086 316.494 69.338 315.678 69.842 315.174 C 70.347 314.67 71.163 314.418 72.29 314.418 L 96.231 314.418 C 97.003 314.418 97.581 314.165 97.966 313.661 C 98.352 313.157 98.545 312.549 98.545 311.837 C 98.545 310.828 98.352 310.086 97.966 309.612 C 97.581 309.137 97.003 308.87 96.231 308.811 L 82.881 306.942 C 78.728 306.348 75.39 304.984 72.868 302.848 C 70.347 300.712 69.086 297.152 69.086 292.168 L 69.086 282.823 C 69.086 277.779 70.718 273.908 73.981 271.208 C 77.245 268.508 81.754 267.159 87.509 267.159 L 112.429 267.159 C 113.557 267.159 114.372 267.411 114.876 267.915 C 115.381 268.419 115.633 269.235 115.633 270.363 L 115.633 280.954 C 115.633 282.081 115.381 282.897 114.876 283.401 C 114.372 283.905 113.557 284.158 112.429 284.158 L 91.692 284.158 C 90.921 284.158 90.328 284.41 89.912 284.914 C 89.497 285.418 89.289 286.056 89.289 286.828 C 89.289 287.599 89.497 288.252 89.912 288.786 C 90.328 289.32 90.921 289.616 91.692 289.676 L 104.953 291.456 C 109.107 292.049 112.459 293.414 115.01 295.55 C 117.562 297.686 118.837 301.246 118.837 306.23 L 118.837 315.575 C 118.837 320.618 117.191 324.489 113.897 327.189 C 110.605 329.889 106.11 331.239 100.414 331.239 Z" style="fill: rgb(65, 61, 81); white-space: pre;"/>
  <path d="M 165.562 331.239 L 151.767 331.239 C 150.64 331.239 149.824 330.986 149.319 330.482 C 148.815 329.978 148.563 329.162 148.563 328.035 L 148.563 270.363 C 148.563 269.235 148.815 268.419 149.319 267.915 C 149.824 267.411 150.64 267.159 151.767 267.159 L 191.461 267.159 C 192.589 267.159 193.404 267.411 193.908 267.915 C 194.413 268.419 194.665 269.235 194.665 270.363 L 194.665 280.954 C 194.665 282.081 194.413 282.897 193.908 283.401 C 193.404 283.905 192.589 284.158 191.461 284.158 L 168.766 284.158 L 168.766 293.414 L 184.252 293.414 C 185.38 293.414 186.195 293.666 186.699 294.17 C 187.204 294.674 187.456 295.49 187.456 296.618 L 187.456 307.298 C 187.456 308.425 187.204 309.241 186.699 309.745 C 186.195 310.249 185.38 310.502 184.252 310.502 L 168.766 310.502 L 168.766 328.035 C 168.766 329.162 168.514 329.978 168.009 330.482 C 167.505 330.986 166.69 331.239 165.562 331.239 Z" style="fill: rgb(65, 61, 81); white-space: pre;"/>
  <path d="M 257.4 314.418 C 257.4 317.147 257 319.624 256.198 321.849 C 255.398 324.074 253.974 325.973 251.926 327.545 C 249.88 329.117 247.061 330.349 243.471 331.239 C 239.882 332.129 235.328 332.574 229.81 332.574 C 224.292 332.574 219.724 332.129 216.104 331.239 C 212.485 330.349 209.652 329.117 207.604 327.545 C 205.558 325.973 204.134 324.074 203.332 321.849 C 202.532 319.624 202.131 317.147 202.131 314.418 L 202.131 284.069 C 202.131 281.339 202.532 278.862 203.332 276.637 C 204.134 274.412 205.558 272.499 207.604 270.897 C 209.652 269.295 212.485 268.049 216.104 267.159 C 219.724 266.269 224.292 265.824 229.81 265.824 C 235.328 265.824 239.882 266.269 243.471 267.159 C 247.061 268.049 249.88 269.295 251.926 270.897 C 253.974 272.499 255.398 274.412 256.198 276.637 C 257 278.862 257.4 281.339 257.4 284.069 L 257.4 314.418 Z M 222.334 311.214 C 222.334 312.4 222.779 313.394 223.669 314.195 C 224.559 314.996 226.606 315.397 229.81 315.397 C 233.014 315.397 235.061 314.996 235.951 314.195 C 236.841 313.394 237.286 312.4 237.286 311.214 L 237.286 287.273 C 237.286 286.145 236.841 285.181 235.951 284.38 C 235.061 283.579 233.014 283.179 229.81 283.179 C 226.606 283.179 224.559 283.579 223.669 284.38 C 222.779 285.181 222.334 286.145 222.334 287.273 L 222.334 311.214 Z" style="fill: rgb(65, 61, 81); white-space: pre;"/>
  <path d="M 288.817 283.179 L 288.817 294.571 L 295.492 294.571 C 297.035 294.571 298.073 294.17 298.607 293.369 C 299.141 292.568 299.408 291.574 299.408 290.388 L 299.408 287.362 C 299.408 286.175 299.141 285.181 298.607 284.38 C 298.073 283.579 297.035 283.179 295.492 283.179 L 288.817 283.179 Z M 285.613 331.239 L 271.907 331.239 C 270.78 331.239 269.964 330.986 269.46 330.482 C 268.956 329.978 268.703 329.162 268.703 328.035 L 268.703 270.363 C 268.703 269.235 268.956 268.419 269.46 267.915 C 269.964 267.411 270.78 267.159 271.907 267.159 L 301.544 267.159 C 308.19 267.159 312.773 268.538 315.295 271.297 C 317.817 274.056 319.077 277.631 319.077 282.022 L 319.077 286.116 C 319.077 288.608 318.707 290.729 317.965 292.479 C 317.223 294.229 315.933 295.49 314.093 296.262 C 317.297 296.618 319.893 297.923 321.881 300.178 C 323.869 302.432 324.862 305.429 324.862 309.167 L 324.862 328.035 C 324.862 329.162 324.61 329.978 324.106 330.482 C 323.602 330.986 322.786 331.239 321.658 331.239 L 307.863 331.239 C 306.736 331.239 305.92 330.986 305.416 330.482 C 304.912 329.978 304.659 329.162 304.659 328.035 L 304.659 314.418 C 304.659 313.112 304.407 312.148 303.903 311.525 C 303.399 310.902 302.523 310.591 301.277 310.591 L 288.817 310.591 L 288.817 328.035 C 288.817 329.162 288.565 329.978 288.061 330.482 C 287.557 330.986 286.741 331.239 285.613 331.239 Z" style="fill: rgb(65, 61, 81); white-space: pre;"/>
  <path d="M 399.36 331.239 L 358.064 331.239 C 356.937 331.239 356.121 330.986 355.616 330.482 C 355.112 329.978 354.86 329.162 354.86 328.035 L 354.86 270.363 C 354.86 269.235 355.112 268.419 355.616 267.915 C 356.121 267.411 356.937 267.159 358.064 267.159 L 399.36 267.159 C 400.488 267.159 401.303 267.411 401.807 267.915 C 402.312 268.419 402.564 269.235 402.564 270.363 L 402.564 280.776 C 402.564 281.903 402.312 282.719 401.807 283.223 C 401.303 283.727 400.488 283.98 399.36 283.98 L 374.796 283.98 L 374.796 290.833 L 392.151 290.833 C 393.279 290.833 394.094 291.085 394.598 291.589 C 395.103 292.093 395.355 292.909 395.355 294.037 L 395.355 303.56 C 395.355 304.687 395.103 305.503 394.598 306.007 C 394.094 306.511 393.279 306.764 392.151 306.764 L 374.796 306.764 L 374.796 314.418 L 399.36 314.418 C 400.488 314.418 401.303 314.67 401.807 315.174 C 402.312 315.678 402.564 316.494 402.564 317.622 L 402.564 328.035 C 402.564 329.162 402.312 329.978 401.807 330.482 C 401.303 330.986 400.488 331.239 399.36 331.239 Z" style="fill: rgb(65, 61, 81); white-space: pre;"/>
  <path d="M 436.292 285.849 L 432.109 299.377 L 446.082 299.377 L 441.899 285.849 C 441.662 285.315 441.41 284.929 441.142 284.692 C 440.876 284.454 440.564 284.336 440.208 284.336 L 437.983 284.336 C 437.627 284.336 437.316 284.454 437.048 284.692 C 436.782 284.929 436.53 285.315 436.292 285.849 Z M 431.219 328.035 C 431.219 329.162 430.967 329.978 430.462 330.482 C 429.958 330.986 429.143 331.239 428.015 331.239 L 414.932 331.239 C 413.805 331.239 412.989 330.986 412.484 330.482 C 411.98 329.978 411.728 329.162 411.728 328.035 L 411.728 304.539 C 411.728 302.759 412.01 300.712 412.573 298.398 C 413.137 296.084 414.013 293.384 415.199 290.299 L 422.942 270.096 C 423.298 269.087 423.847 268.345 424.588 267.871 C 425.33 267.396 426.295 267.159 427.481 267.159 L 451.422 267.159 C 452.55 267.159 453.484 267.396 454.225 267.871 C 454.967 268.345 455.516 269.087 455.872 270.096 L 463.615 290.299 C 464.802 293.384 465.677 296.084 466.24 298.398 C 466.804 300.712 467.086 302.759 467.086 304.539 L 467.086 328.035 C 467.086 329.162 466.834 329.978 466.329 330.482 C 465.825 330.986 465.01 331.239 463.882 331.239 L 450.443 331.239 C 449.257 331.239 448.381 330.986 447.817 330.482 C 447.254 329.978 446.972 329.162 446.972 328.035 L 446.972 315.575 L 431.219 315.575 L 431.219 328.035 Z" style="fill: rgb(65, 61, 81); white-space: pre;"/>
  <path d="M 498.146 283.179 L 498.146 294.571 L 504.821 294.571 C 506.364 294.571 507.402 294.17 507.936 293.369 C 508.47 292.568 508.737 291.574 508.737 290.388 L 508.737 287.362 C 508.737 286.175 508.47 285.181 507.936 284.38 C 507.402 283.579 506.364 283.179 504.821 283.179 L 498.146 283.179 Z M 494.942 331.239 L 481.236 331.239 C 480.109 331.239 479.293 330.986 478.788 330.482 C 478.284 329.978 478.032 329.162 478.032 328.035 L 478.032 270.363 C 478.032 269.235 478.284 268.419 478.788 267.915 C 479.293 267.411 480.109 267.159 481.236 267.159 L 510.873 267.159 C 517.519 267.159 522.102 268.538 524.623 271.297 C 527.145 274.056 528.406 277.631 528.406 282.022 L 528.406 286.116 C 528.406 288.608 528.035 290.729 527.293 292.479 C 526.552 294.229 525.262 295.49 523.422 296.262 C 526.626 296.618 529.222 297.923 531.209 300.178 C 533.197 302.432 534.191 305.429 534.191 309.167 L 534.191 328.035 C 534.191 329.162 533.939 329.978 533.434 330.482 C 532.93 330.986 532.115 331.239 530.987 331.239 L 517.192 331.239 C 516.065 331.239 515.249 330.986 514.744 330.482 C 514.24 329.978 513.988 329.162 513.988 328.035 L 513.988 314.418 C 513.988 313.112 513.736 312.148 513.231 311.525 C 512.727 310.902 511.852 310.591 510.606 310.591 L 498.146 310.591 L 498.146 328.035 C 498.146 329.162 497.894 329.978 497.389 330.482 C 496.885 330.986 496.07 331.239 494.942 331.239 Z" style="fill: rgb(65, 61, 81); white-space: pre;"/>
  <path d="M 571.745 331.239 L 557.327 331.239 C 556.2 331.239 555.384 330.986 554.879 330.482 C 554.375 329.978 554.123 329.162 554.123 328.035 L 554.123 284.336 L 541.04 284.336 C 539.913 284.336 539.097 284.083 538.592 283.579 C 538.088 283.075 537.836 282.259 537.836 281.132 L 537.836 270.363 C 537.836 269.235 538.088 268.419 538.592 267.915 C 539.097 267.411 539.913 267.159 541.04 267.159 L 588.032 267.159 C 589.16 267.159 589.975 267.411 590.479 267.915 C 590.984 268.419 591.236 269.235 591.236 270.363 L 591.236 281.132 C 591.236 282.259 590.984 283.075 590.479 283.579 C 589.975 284.083 589.16 284.336 588.032 284.336 L 574.949 284.336 L 574.949 328.035 C 574.949 329.162 574.697 329.978 574.192 330.482 C 573.688 330.986 572.873 331.239 571.745 331.239 Z" style="fill: rgb(65, 61, 81); white-space: pre;"/>
  <path d="M 616.874 331.239 L 603.079 331.239 C 601.952 331.239 601.136 330.986 600.632 330.482 C 600.128 329.978 599.875 329.162 599.875 328.035 L 599.875 270.363 C 599.875 269.235 600.128 268.419 600.632 267.915 C 601.136 267.411 601.952 267.159 603.079 267.159 L 616.874 267.159 C 618.002 267.159 618.818 267.411 619.322 267.915 C 619.826 268.419 620.078 269.235 620.078 270.363 L 620.078 289.676 L 634.941 289.676 L 634.941 270.363 C 634.941 269.235 635.194 268.419 635.698 267.915 C 636.202 267.411 637.018 267.159 638.145 267.159 L 651.94 267.159 C 653.068 267.159 653.884 267.411 654.388 267.915 C 654.892 268.419 655.144 269.235 655.144 270.363 L 655.144 328.035 C 655.144 329.162 654.892 329.978 654.388 330.482 C 653.884 330.986 653.068 331.239 651.94 331.239 L 638.145 331.239 C 637.018 331.239 636.202 330.986 635.698 330.482 C 635.194 329.978 634.941 329.162 634.941 328.035 L 634.941 308.277 L 620.078 308.277 L 620.078 328.035 C 620.078 329.162 619.826 329.978 619.322 330.482 C 618.818 330.986 618.002 331.239 616.874 331.239 Z" style="fill: rgb(65, 61, 81); white-space: pre;"/>
  <path d="M -215.365 482.924 L -215.365 483.639 L -227.306 483.639 Q -234.241 483.639 -236.493 481.494 Q -238.746 479.349 -238.746 474.416 L -238.746 454.396 Q -238.746 449.319 -236.458 447.174 Q -234.17 445.029 -227.306 445.029 L -215.365 445.029 L -215.365 445.744 L -227.306 445.744 Q -233.598 445.744 -235.814 447.71 Q -238.031 449.677 -238.031 454.396 L -238.031 474.416 Q -238.031 479.063 -235.886 480.994 Q -233.741 482.924 -227.306 482.924 Z" style="fill: rgb(51, 51, 51); white-space: pre;"/>
  <path d="M -165.328 474.916 Q -165.328 479.206 -168.403 481.887 Q -171.477 484.569 -179.843 484.569 Q -188.208 484.569 -191.211 481.887 Q -194.214 479.206 -194.214 474.916 L -194.214 453.824 Q -194.214 449.534 -191.211 446.852 Q -188.208 444.171 -179.843 444.171 Q -171.477 444.171 -168.403 446.852 Q -165.328 449.534 -165.328 453.824 Z M -193.499 474.916 Q -193.499 478.92 -190.639 481.387 Q -187.779 483.854 -179.843 483.854 Q -171.906 483.854 -168.975 481.387 Q -166.043 478.92 -166.043 474.916 L -166.043 453.824 Q -166.043 449.82 -168.975 447.353 Q -171.906 444.886 -179.843 444.886 Q -187.779 444.886 -190.639 447.353 Q -193.499 449.82 -193.499 453.824 Z" style="fill: rgb(51, 51, 51); white-space: pre;"/>
  <path d="M -140.653 483.639 L -140.653 445.029 L -123.35 445.029 Q -119.704 445.029 -117.451 445.816 Q -115.199 446.602 -113.984 447.925 Q -112.768 449.248 -112.339 451.071 Q -111.91 452.894 -111.91 454.968 L -111.91 473.915 Q -111.91 475.989 -112.303 477.776 Q -112.697 479.564 -113.912 480.851 Q -115.128 482.138 -117.416 482.888 Q -119.704 483.639 -123.35 483.639 Z M -123.35 445.744 L -139.938 445.744 L -139.938 482.924 L -123.35 482.924 Q -119.918 482.924 -117.809 482.245 Q -115.7 481.566 -114.556 480.386 Q -113.412 479.206 -113.018 477.526 Q -112.625 475.846 -112.625 473.915 L -112.625 454.968 Q -112.625 453.037 -113.054 451.321 Q -113.483 449.605 -114.627 448.39 Q -115.771 447.174 -117.88 446.459 Q -119.99 445.744 -123.35 445.744 Z" style="fill: rgb(51, 51, 51); white-space: pre;"/>
  <path d="M -63.214 482.924 L -63.214 483.639 L -87.309 483.639 L -87.309 445.029 L -63.214 445.029 L -63.214 445.744 L -86.594 445.744 L -86.594 463.691 L -69.005 463.691 L -69.005 464.406 L -86.594 464.406 L -86.594 482.924 Z" style="fill: rgb(51, 51, 51); white-space: pre;"/>
  <path d="M -24.329 445.744 L -39.916 445.744 L -39.916 466.408 L -24.329 466.408 Q -19.896 466.408 -18.394 464.263 Q -16.893 462.118 -16.893 458.185 L -16.893 453.18 Q -16.893 449.891 -18.716 447.818 Q -20.539 445.744 -24.329 445.744 Z M -39.916 483.639 L -40.631 483.639 L -40.631 445.029 L -24.329 445.029 Q -20.182 445.029 -18.18 447.353 Q -16.178 449.677 -16.178 453.18 L -16.178 458.114 Q -16.178 461.403 -17.036 463.512 Q -17.894 465.621 -20.468 466.408 L -19.681 466.408 Q -15.32 466.408 -13.175 468.374 Q -11.03 470.34 -11.03 474.058 L -11.03 483.639 L -11.745 483.639 L -11.745 474.058 Q -11.745 470.555 -13.675 468.803 Q -15.606 467.051 -19.681 467.051 L -39.916 467.051 Z" style="fill: rgb(51, 51, 51); white-space: pre;"/>
  <path d="M 34.445 445.029 L 34.445 445.744 L 18.572 445.744 Q 15.569 445.744 13.781 447.389 Q 11.994 449.033 11.994 451.536 L 11.994 457.399 Q 11.994 459.901 12.995 460.902 Q 13.996 461.903 15.64 462.189 L 30.727 465.264 Q 32.872 465.693 34.266 467.123 Q 35.66 468.553 35.66 472.271 L 35.66 476.418 Q 35.66 479.564 33.515 481.601 Q 31.37 483.639 27.724 483.639 L 9.92 483.639 L 9.92 482.924 L 27.724 482.924 Q 31.013 482.924 32.979 481.101 Q 34.945 479.278 34.945 476.418 L 34.945 472.271 Q 34.945 468.91 33.765 467.659 Q 32.586 466.408 30.584 465.979 L 15.497 462.904 Q 13.638 462.547 12.458 461.438 Q 11.279 460.33 11.279 457.399 L 11.279 451.536 Q 11.279 448.676 13.281 446.852 Q 15.283 445.029 18.572 445.029 Z" style="fill: rgb(51, 51, 51); white-space: pre;"/>
  <path d="M 75.128 483.639 L 75.128 445.029 L 97.937 445.029 L 97.937 445.744 L 75.843 445.744 L 75.843 466.193 L 92.145 466.193 L 92.145 466.908 L 75.843 466.908 L 75.843 483.639 Z" style="fill: rgb(51, 51, 51); white-space: pre;"/>
  <path d="M 146.984 474.916 Q 146.984 479.206 143.91 481.887 Q 140.835 484.569 132.47 484.569 Q 124.104 484.569 121.101 481.887 Q 118.098 479.206 118.098 474.916 L 118.098 453.824 Q 118.098 449.534 121.101 446.852 Q 124.104 444.171 132.47 444.171 Q 140.835 444.171 143.91 446.852 Q 146.984 449.534 146.984 453.824 Z M 118.813 474.916 Q 118.813 478.92 121.673 481.387 Q 124.533 483.854 132.47 483.854 Q 140.406 483.854 143.338 481.387 Q 146.269 478.92 146.269 474.916 L 146.269 453.824 Q 146.269 449.82 143.338 447.353 Q 140.406 444.886 132.47 444.886 Q 124.533 444.886 121.673 447.353 Q 118.813 449.82 118.813 453.824 Z" style="fill: rgb(51, 51, 51); white-space: pre;"/>
  <path d="M 187.89 445.744 L 172.303 445.744 L 172.303 466.408 L 187.89 466.408 Q 192.323 466.408 193.824 464.263 Q 195.326 462.118 195.326 458.185 L 195.326 453.18 Q 195.326 449.891 193.503 447.818 Q 191.679 445.744 187.89 445.744 Z M 172.303 483.639 L 171.588 483.639 L 171.588 445.029 L 187.89 445.029 Q 192.037 445.029 194.039 447.353 Q 196.041 449.677 196.041 453.18 L 196.041 458.114 Q 196.041 461.403 195.183 463.512 Q 194.325 465.621 191.751 466.408 L 192.537 466.408 Q 196.899 466.408 199.044 468.374 Q 201.189 470.34 201.189 474.058 L 201.189 483.639 L 200.474 483.639 L 200.474 474.058 Q 200.474 470.555 198.543 468.803 Q 196.613 467.051 192.537 467.051 L 172.303 467.051 Z" style="fill: rgb(51, 51, 51); white-space: pre;"/>
  <path d="M 264.958 482.924 L 264.958 483.639 L 240.862 483.639 L 240.862 445.029 L 264.958 445.029 L 264.958 445.744 L 241.577 445.744 L 241.577 463.691 L 259.166 463.691 L 259.166 464.406 L 241.577 464.406 L 241.577 482.924 Z" style="fill: rgb(51, 51, 51); white-space: pre;"/>
  <path d="M 287.056 468.41 L 287.056 470.626 L 314.941 470.626 L 314.941 468.41 Q 314.941 466.479 314.619 464.835 Q 314.298 463.19 313.797 461.76 L 308.864 450.106 Q 308.077 448.247 307.219 446.995 Q 306.361 445.744 304.359 445.744 L 297.352 445.744 Q 295.207 445.744 294.349 446.995 Q 293.491 448.247 292.776 450.034 L 288.2 461.76 Q 287.7 463.19 287.378 464.835 Q 287.056 466.479 287.056 468.41 Z M 314.941 483.639 L 314.941 471.341 L 287.056 471.341 L 287.056 483.639 L 286.341 483.639 L 286.341 468.41 Q 286.341 466.408 286.663 464.727 Q 286.985 463.047 287.557 461.474 L 292.133 449.748 Q 292.919 447.746 293.92 446.388 Q 294.921 445.029 297.352 445.029 L 304.359 445.029 Q 306.719 445.029 307.684 446.388 Q 308.649 447.746 309.507 449.82 L 314.441 461.474 Q 315.013 463.047 315.334 464.727 Q 315.656 466.408 315.656 468.41 L 315.656 483.639 Z" style="fill: rgb(51, 51, 51); white-space: pre;"/>
  <path d="M 356.062 445.744 L 340.475 445.744 L 340.475 466.408 L 356.062 466.408 Q 360.495 466.408 361.996 464.263 Q 363.498 462.118 363.498 458.185 L 363.498 453.18 Q 363.498 449.891 361.674 447.818 Q 359.851 445.744 356.062 445.744 Z M 340.475 483.639 L 339.76 483.639 L 339.76 445.029 L 356.062 445.029 Q 360.209 445.029 362.211 447.353 Q 364.213 449.677 364.213 453.18 L 364.213 458.114 Q 364.213 461.403 363.355 463.512 Q 362.497 465.621 359.923 466.408 L 360.709 466.408 Q 365.071 466.408 367.216 468.374 Q 369.361 470.34 369.361 474.058 L 369.361 483.639 L 368.646 483.639 L 368.646 474.058 Q 368.646 470.555 366.715 468.803 Q 364.785 467.051 360.709 467.051 L 340.475 467.051 Z" style="fill: rgb(51, 51, 51); white-space: pre;"/>
  <path d="M 401.167 483.639 L 401.167 445.744 L 386.51 445.744 L 386.51 445.029 L 416.54 445.029 L 416.54 445.744 L 401.882 445.744 L 401.882 483.639 Z" style="fill: rgb(51, 51, 51); white-space: pre;"/>
  <path d="M 437.635 483.639 L 437.635 445.029 L 438.35 445.029 L 438.35 463.977 L 465.806 463.977 L 465.806 445.029 L 466.521 445.029 L 466.521 483.639 L 465.806 483.639 L 465.806 464.692 L 438.35 464.692 L 438.35 483.639 Z" style="fill: rgb(51, 51, 51); white-space: pre;"/>
  <path d="M 492.615 483.639 L 492.615 476.847 L 493.33 476.847 L 493.33 483.639 Z" style="fill: rgb(51, 51, 51); white-space: pre;"/>
  <path d="M 541.963 482.924 L 541.963 483.639 L 530.023 483.639 Q 523.087 483.639 520.835 481.494 Q 518.583 479.349 518.583 474.416 L 518.583 454.396 Q 518.583 449.319 520.871 447.174 Q 523.159 445.029 530.023 445.029 L 541.963 445.029 L 541.963 445.744 L 530.023 445.744 Q 523.731 445.744 521.514 447.71 Q 519.298 449.677 519.298 454.396 L 519.298 474.416 Q 519.298 479.063 521.443 480.994 Q 523.588 482.924 530.023 482.924 Z" style="fill: rgb(51, 51, 51); white-space: pre;"/>
  <path d="M 592 474.916 Q 592 479.206 588.925 481.887 Q 585.851 484.569 577.485 484.569 Q 569.12 484.569 566.117 481.887 Q 563.114 479.206 563.114 474.916 L 563.114 453.824 Q 563.114 449.534 566.117 446.852 Q 569.12 444.171 577.485 444.171 Q 585.851 444.171 588.925 446.852 Q 592 449.534 592 453.824 Z M 563.829 474.916 Q 563.829 478.92 566.689 481.387 Q 569.549 483.854 577.485 483.854 Q 585.422 483.854 588.353 481.387 Q 591.285 478.92 591.285 474.916 L 591.285 453.824 Q 591.285 449.82 588.353 447.353 Q 585.422 444.886 577.485 444.886 Q 569.549 444.886 566.689 447.353 Q 563.829 449.82 563.829 453.824 Z" style="fill: rgb(51, 51, 51); white-space: pre;"/>
  <path d="M 634.049 462.547 Q 635.336 462.547 635.908 461.975 Q 636.48 461.403 637.696 459.544 L 646.419 446.245 Q 646.848 445.53 647.384 445.279 Q 647.92 445.029 648.492 445.029 L 649.708 445.029 Q 650.709 445.029 651.174 445.565 Q 651.638 446.102 651.638 447.246 L 651.638 483.639 L 650.923 483.639 L 650.923 447.246 Q 650.923 446.674 650.673 446.209 Q 650.423 445.744 649.708 445.744 L 648.635 445.744 Q 648.135 445.744 647.777 445.887 Q 647.42 446.03 646.991 446.745 L 638.268 459.901 Q 636.981 461.832 636.302 462.547 Q 635.622 463.262 634.049 463.262 Q 632.476 463.262 631.797 462.547 Q 631.118 461.832 629.831 459.901 L 621.108 446.745 Q 620.679 446.03 620.286 445.887 Q 619.892 445.744 619.392 445.744 L 618.319 445.744 Q 617.604 445.744 617.39 446.209 Q 617.175 446.674 617.175 447.246 L 617.175 483.639 L 616.46 483.639 L 616.46 447.246 Q 616.46 446.102 616.925 445.565 Q 617.39 445.029 618.319 445.029 L 619.535 445.029 Q 620.107 445.029 620.679 445.279 Q 621.251 445.53 621.68 446.245 L 630.403 459.544 Q 631.618 461.403 632.19 461.975 Q 632.762 462.547 634.049 462.547 Z" style="fill: rgb(51, 51, 51); white-space: pre;"/>
</svg>